<svg width="1600" height="900" viewBox="0 0 1600 900" fill="none" xmlns="http://www.w3.org/2000/svg">
  <defs>
    <linearGradient id="citySky" x1="800" y1="0" x2="800" y2="900" gradientUnits="userSpaceOnUse">
      <stop stop-color="#132B5C"/>
      <stop offset="0.45" stop-color="#3B538C"/>
      <stop offset="1" stop-color="#F0A06B"/>
    </linearGradient>
  </defs>
  <rect width="1600" height="900" fill="url(#citySky)"/>
  <circle cx="1220" cy="170" r="62" fill="#FFD195" opacity="0.9"/>
  <rect y="665" width="1600" height="235" fill="#10203D"/>
  <g fill="#16284B">
    <rect x="80" y="410" width="150" height="255"/>
    <rect x="250" y="300" width="115" height="365"/>
    <rect x="395" y="360" width="125" height="305"/>
    <rect x="555" y="238" width="150" height="427"/>
    <rect x="735" y="330" width="125" height="335"/>
    <rect x="895" y="260" width="145" height="405"/>
    <rect x="1080" y="390" width="120" height="275"/>
    <rect x="1235" y="285" width="165" height="380"/>
    <rect x="1425" y="355" width="95" height="310"/>
  </g>
  <g fill="#FFD68C" opacity="0.9">
    <rect x="112" y="450" width="18" height="18"/>
    <rect x="152" y="450" width="18" height="18"/>
    <rect x="112" y="492" width="18" height="18"/>
    <rect x="152" y="492" width="18" height="18"/>
    <rect x="282" y="340" width="16" height="16"/>
    <rect x="314" y="340" width="16" height="16"/>
    <rect x="282" y="378" width="16" height="16"/>
    <rect x="314" y="378" width="16" height="16"/>
    <rect x="440" y="402" width="17" height="17"/>
    <rect x="440" y="438" width="17" height="17"/>
    <rect x="600" y="280" width="20" height="20"/>
    <rect x="642" y="280" width="20" height="20"/>
    <rect x="600" y="325" width="20" height="20"/>
    <rect x="642" y="325" width="20" height="20"/>
    <rect x="770" y="370" width="18" height="18"/>
    <rect x="930" y="305" width="18" height="18"/>
    <rect x="972" y="305" width="18" height="18"/>
    <rect x="930" y="348" width="18" height="18"/>
    <rect x="972" y="348" width="18" height="18"/>
    <rect x="1120" y="432" width="18" height="18"/>
    <rect x="1275" y="335" width="20" height="20"/>
    <rect x="1320" y="335" width="20" height="20"/>
    <rect x="1275" y="380" width="20" height="20"/>
    <rect x="1320" y="380" width="20" height="20"/>
  </g>
  <path d="M0 735C170 715 294 718 440 740C597 763 735 767 884 744C1067 715 1180 708 1335 730C1458 747 1548 748 1600 742" stroke="#FFB37B" stroke-width="10" stroke-linecap="round" opacity="0.42"/>
</svg>
