<svg width="1600" height="900" viewBox="0 0 1600 900" fill="none" xmlns="http://www.w3.org/2000/svg">
  <defs>
    <linearGradient id="villageSky" x1="800" y1="0" x2="800" y2="900" gradientUnits="userSpaceOnUse">
      <stop stop-color="#A9D4FF"/>
      <stop offset="0.62" stop-color="#F7F0D2"/>
      <stop offset="1" stop-color="#F3D4A6"/>
    </linearGradient>
  </defs>
  <rect width="1600" height="900" fill="url(#villageSky)"/>
  <circle cx="1290" cy="180" r="85" fill="#FFE59A"/>
  <path d="M0 520C180 482 302 482 455 518C615 556 764 563 928 535C1090 506 1238 498 1600 525V900H0V520Z" fill="#7AA05F"/>
  <path d="M0 620C174 586 320 583 470 612C639 645 787 649 939 618C1107 584 1285 579 1600 610V900H0V620Z" fill="#D9B654"/>
  <path d="M0 700C182 668 344 664 512 694C679 724 836 729 992 700C1164 669 1320 666 1600 697V900H0V700Z" fill="#B88A37"/>
  <rect x="970" y="470" width="210" height="165" fill="#F4E2C5"/>
  <path d="M938 470L1075 360L1212 470H938Z" fill="#A95A3B"/>
  <rect x="1035" y="535" width="56" height="100" fill="#845439"/>
  <rect x="880" y="525" width="72" height="110" fill="#E5D4BA"/>
  <path d="M862 525L916 465L970 525H862Z" fill="#915038"/>
  <path d="M0 770C240 742 486 744 728 775C951 804 1172 810 1410 782C1478 774 1544 766 1600 760" stroke="#FBE8B1" stroke-width="10" stroke-linecap="round" opacity="0.55"/>
  <g fill="#2E5A34">
    <circle cx="250" cy="505" r="42"/>
    <circle cx="315" cy="530" r="34"/>
    <circle cx="1350" cy="505" r="40"/>
    <circle cx="1410" cy="532" r="36"/>
  </g>
</svg>
